<svg xmlns="http://www.w3.org/2000/svg" width="45" height="79" viewBox="0 0 45 79" fill="none">
  <path d="M41.1327 0.681296C42.4133 0.165091 43.8699 0.784744 44.3861 2.06533C44.9023 3.34591 44.2826 4.8025 43.0021 5.3187L41.1327 0.681296ZM28.0671 75.4603C28.089 76.8409 26.9876 77.9778 25.6071 77.9997L3.10989 78.3568C1.72935 78.3787 0.592445 77.2773 0.57053 75.8968C0.548618 74.5162 1.65 73.3793 3.03054 73.3574L23.028 73.04L22.7106 53.0425C22.6887 51.662 23.7901 50.5251 25.1706 50.5031C26.5511 50.4812 27.6881 51.5826 27.71 52.9632L28.0671 75.4603ZM43.0021 5.3187C32.5019 9.55134 19.4311 18.0659 13.5879 29.674C10.7093 35.3928 9.57322 41.8722 11.3498 49.1002C13.138 56.3755 17.9314 64.6219 27.3069 73.7044L23.8279 77.2956C14.0034 67.7781 8.57173 58.7454 6.49433 50.2936C4.4053 41.7945 5.76293 34.0989 9.12183 27.426C15.7537 14.2508 30.1329 5.11532 41.1327 0.681296L43.0021 5.3187Z" fill="#FF0202"/>
</svg>