<svg xmlns="http://www.w3.org/2000/svg" width="45" height="78" viewBox="0 0 45 78" fill="none">
<path d="M3.93467 0.181296C2.65409 -0.334909 1.1975 0.284744 0.681296 1.56533C0.165091 2.84591 0.784744 4.3025 2.06533 4.8187L3.93467 0.181296ZM17.0003 74.9603C16.9784 76.3409 18.0798 77.4778 19.4603 77.4997L41.9575 77.8568C43.338 77.8787 44.4749 76.7773 44.4969 75.3968C44.5188 74.0162 43.4174 72.8793 42.0368 72.8574L22.0394 72.54L22.3568 52.5425C22.3787 51.162 21.2773 50.0251 19.8968 50.0031C18.5162 49.9812 17.3793 51.0826 17.3574 52.4632L17.0003 74.9603ZM2.06533 4.8187C12.5655 9.05134 25.6363 17.5659 31.4794 29.174C34.358 34.8928 35.4942 41.3722 33.7176 48.6002C31.9293 55.8755 27.136 64.1219 17.7605 73.2044L21.2395 76.7956C31.064 67.2781 36.4957 58.2454 38.5731 49.7936C40.6621 41.2945 39.3045 33.5989 35.9456 26.926C29.3137 13.7508 14.9345 4.61532 3.93467 0.181296L2.06533 4.8187Z" fill="#FF0202"/>
</svg>